<mxfile host="app.diagrams.net" modified="2023-09-25T22:26:06.175Z" agent="Mozilla/5.0 (Windows NT 10.0; Win64; x64) AppleWebKit/537.36 (KHTML, like Gecko) Chrome/117.0.0.0 Safari/537.36" etag="YQMW3eSu5Ok1ftLH7Y2U" version="21.8.2" type="github">
  <diagram name="PÃ¡gina-1" id="E-QWh-BqtW5g9JhBuva9">
    <mxGraphModel dx="2812" dy="1085" grid="1" gridSize="10" guides="1" tooltips="1" connect="1" arrows="1" fold="1" page="1" pageScale="1" pageWidth="827" pageHeight="1169" math="0" shadow="0">
      <root>
        <mxCell id="0" />
        <mxCell id="1" parent="0" />
        <mxCell id="nNT3iWc_eE8hrZQ5aYZv-1" value="&lt;div style=&quot;font-size: 45px;&quot;&gt;Ulysses Protocol Diagram&lt;br&gt;&lt;/div&gt;" style="text;html=1;strokeColor=#FFC012;fillColor=#FF0080;align=center;verticalAlign=middle;whiteSpace=wrap;rounded=1;gradientColor=#FFE599;strokeWidth=2;" vertex="1" parent="1">
          <mxGeometry x="94" y="640" width="546" height="70" as="geometry" />
        </mxCell>
        <mxCell id="nNT3iWc_eE8hrZQ5aYZv-4" value="&lt;img alt=&quot;Support - Free computer icons&quot; src=&quot;https://encrypted-tbn0.gstatic.com/images?q=tbn:ANd9GcS4XGp03Iu4robymNyETolsGYEMNJblqOQlH9g1lNMhDgqRg-V96MaMMnqrylzVJul2swc&amp;amp;usqp=CAU&quot;&gt;" style="text;html=1;strokeColor=none;fillColor=none;align=center;verticalAlign=middle;whiteSpace=wrap;rounded=0;fontSize=20;fontFamily=Helvetica;fontColor=#000000;" vertex="1" parent="1">
          <mxGeometry x="360" y="1270" width="232" height="230" as="geometry" />
        </mxCell>
        <mxCell id="nNT3iWc_eE8hrZQ5aYZv-7" value="&lt;img alt=&quot;Maia DAO&quot; src=&quot;https://code4rena.com/_next/image?url=https%3A%2F%2Fstorage.googleapis.com%2Fcdn-c4-uploads-v0%2Fuploads%2FwE7RLxfWDRg.0&amp;amp;w=256&amp;amp;q=75&quot;&gt;" style="text;html=1;strokeColor=none;fillColor=none;align=center;verticalAlign=middle;whiteSpace=wrap;rounded=0;fontSize=20;fontFamily=Helvetica;fontColor=#000000;" vertex="1" parent="1">
          <mxGeometry x="251" y="740" width="232" height="230" as="geometry" />
        </mxCell>
        <mxCell id="nNT3iWc_eE8hrZQ5aYZv-12" value="&lt;font style=&quot;font-size: 25px;&quot;&gt;&lt;b&gt;Efficiency of capital in DeFi&lt;/b&gt;&lt;/font&gt;" style="text;html=1;strokeColor=none;fillColor=none;align=center;verticalAlign=middle;whiteSpace=wrap;rounded=0;" vertex="1" parent="1">
          <mxGeometry x="-565" y="495" width="350" height="40" as="geometry" />
        </mxCell>
        <mxCell id="nNT3iWc_eE8hrZQ5aYZv-16" value="&lt;font style=&quot;font-size: 25px;&quot;&gt;&lt;b&gt;Liquidity Providers&lt;/b&gt;&lt;/font&gt;" style="text;html=1;strokeColor=none;fillColor=none;align=center;verticalAlign=middle;whiteSpace=wrap;rounded=0;" vertex="1" parent="1">
          <mxGeometry x="-560" y="550" width="340" height="40" as="geometry" />
        </mxCell>
        <mxCell id="nNT3iWc_eE8hrZQ5aYZv-19" value="" style="endArrow=classic;html=1;rounded=0;entryX=1;entryY=0.5;entryDx=0;entryDy=0;exitX=0;exitY=0.5;exitDx=0;exitDy=0;strokeColor=#FF0080;" edge="1" parent="1" source="nNT3iWc_eE8hrZQ5aYZv-1" target="nNT3iWc_eE8hrZQ5aYZv-12">
          <mxGeometry width="50" height="50" relative="1" as="geometry">
            <mxPoint x="-70" y="660" as="sourcePoint" />
            <mxPoint x="-20" y="610" as="targetPoint" />
          </mxGeometry>
        </mxCell>
        <mxCell id="nNT3iWc_eE8hrZQ5aYZv-20" value="" style="endArrow=classic;html=1;rounded=0;entryX=1;entryY=0.5;entryDx=0;entryDy=0;exitX=0;exitY=0.5;exitDx=0;exitDy=0;strokeColor=#FF66B3;" edge="1" parent="1" source="nNT3iWc_eE8hrZQ5aYZv-1" target="nNT3iWc_eE8hrZQ5aYZv-16">
          <mxGeometry width="50" height="50" relative="1" as="geometry">
            <mxPoint x="74" y="745" as="sourcePoint" />
            <mxPoint x="-240" y="605" as="targetPoint" />
          </mxGeometry>
        </mxCell>
        <mxCell id="nNT3iWc_eE8hrZQ5aYZv-21" value="&lt;font style=&quot;font-size: 25px;&quot;&gt;&lt;b&gt;Income across Multiple Chains&lt;/b&gt;&lt;/font&gt;" style="text;html=1;strokeColor=none;fillColor=none;align=center;verticalAlign=middle;whiteSpace=wrap;rounded=0;" vertex="1" parent="1">
          <mxGeometry x="-580" y="610" width="370" height="40" as="geometry" />
        </mxCell>
        <mxCell id="nNT3iWc_eE8hrZQ5aYZv-23" value="" style="endArrow=classic;html=1;rounded=0;entryX=1;entryY=0.5;entryDx=0;entryDy=0;exitX=0;exitY=0.5;exitDx=0;exitDy=0;strokeColor=#7F00FF;" edge="1" parent="1" source="nNT3iWc_eE8hrZQ5aYZv-1" target="nNT3iWc_eE8hrZQ5aYZv-21">
          <mxGeometry width="50" height="50" relative="1" as="geometry">
            <mxPoint x="59" y="820" as="sourcePoint" />
            <mxPoint x="-260" y="710" as="targetPoint" />
          </mxGeometry>
        </mxCell>
        <mxCell id="nNT3iWc_eE8hrZQ5aYZv-24" value="&lt;font style=&quot;font-size: 25px;&quot;&gt;&lt;b&gt;Operational Cost Reduction&lt;/b&gt;&lt;/font&gt;" style="text;html=1;strokeColor=none;fillColor=none;align=center;verticalAlign=middle;whiteSpace=wrap;rounded=0;" vertex="1" parent="1">
          <mxGeometry x="-580" y="670" width="370" height="40" as="geometry" />
        </mxCell>
        <mxCell id="nNT3iWc_eE8hrZQ5aYZv-25" value="&lt;font style=&quot;font-size: 25px;&quot;&gt;&lt;b&gt;Unified Liquidity Token&lt;/b&gt;&lt;/font&gt;" style="text;html=1;strokeColor=none;fillColor=none;align=center;verticalAlign=middle;whiteSpace=wrap;rounded=0;" vertex="1" parent="1">
          <mxGeometry x="-580" y="730" width="370" height="40" as="geometry" />
        </mxCell>
        <mxCell id="nNT3iWc_eE8hrZQ5aYZv-26" value="" style="endArrow=classic;html=1;rounded=0;entryX=1;entryY=0.5;entryDx=0;entryDy=0;exitX=0;exitY=0.5;exitDx=0;exitDy=0;strokeColor=#6600CC;" edge="1" parent="1" source="nNT3iWc_eE8hrZQ5aYZv-1" target="nNT3iWc_eE8hrZQ5aYZv-24">
          <mxGeometry width="50" height="50" relative="1" as="geometry">
            <mxPoint x="134" y="785" as="sourcePoint" />
            <mxPoint x="-170" y="780" as="targetPoint" />
          </mxGeometry>
        </mxCell>
        <mxCell id="nNT3iWc_eE8hrZQ5aYZv-27" value="" style="endArrow=classic;html=1;rounded=0;entryX=1;entryY=0.5;entryDx=0;entryDy=0;exitX=0;exitY=0.5;exitDx=0;exitDy=0;strokeColor=#FF66B3;" edge="1" parent="1" source="nNT3iWc_eE8hrZQ5aYZv-1" target="nNT3iWc_eE8hrZQ5aYZv-25">
          <mxGeometry width="50" height="50" relative="1" as="geometry">
            <mxPoint x="124" y="729.29" as="sourcePoint" />
            <mxPoint x="-180" y="729.29" as="targetPoint" />
          </mxGeometry>
        </mxCell>
        <mxCell id="nNT3iWc_eE8hrZQ5aYZv-28" value="&lt;font style=&quot;font-size: 25px;&quot;&gt;&lt;b&gt;DeFi Composability&lt;/b&gt;&lt;/font&gt;" style="text;html=1;strokeColor=none;fillColor=none;align=center;verticalAlign=middle;whiteSpace=wrap;rounded=0;" vertex="1" parent="1">
          <mxGeometry x="-580" y="800" width="370" height="40" as="geometry" />
        </mxCell>
        <mxCell id="nNT3iWc_eE8hrZQ5aYZv-29" value="" style="endArrow=classic;html=1;rounded=0;entryX=1;entryY=0.5;entryDx=0;entryDy=0;exitX=0;exitY=0.5;exitDx=0;exitDy=0;strokeColor=#FFC012;" edge="1" parent="1" source="nNT3iWc_eE8hrZQ5aYZv-1" target="nNT3iWc_eE8hrZQ5aYZv-28">
          <mxGeometry width="50" height="50" relative="1" as="geometry">
            <mxPoint x="124" y="730" as="sourcePoint" />
            <mxPoint x="-180" y="785" as="targetPoint" />
          </mxGeometry>
        </mxCell>
        <mxCell id="nNT3iWc_eE8hrZQ5aYZv-30" value="&lt;font style=&quot;font-size: 25px;&quot;&gt;&lt;b&gt;Virtualized Liquidity Management&lt;/b&gt;&lt;/font&gt;" style="text;html=1;strokeColor=none;fillColor=none;align=center;verticalAlign=middle;whiteSpace=wrap;rounded=0;" vertex="1" parent="1">
          <mxGeometry x="930" y="495" width="429" height="40" as="geometry" />
        </mxCell>
        <mxCell id="nNT3iWc_eE8hrZQ5aYZv-31" value="" style="endArrow=classic;html=1;rounded=0;entryX=0;entryY=0.5;entryDx=0;entryDy=0;exitX=1;exitY=0.5;exitDx=0;exitDy=0;strokeColor=#FF0080;" edge="1" parent="1" source="nNT3iWc_eE8hrZQ5aYZv-1" target="nNT3iWc_eE8hrZQ5aYZv-30">
          <mxGeometry width="50" height="50" relative="1" as="geometry">
            <mxPoint x="924" y="685" as="sourcePoint" />
            <mxPoint x="610" y="525" as="targetPoint" />
          </mxGeometry>
        </mxCell>
        <mxCell id="nNT3iWc_eE8hrZQ5aYZv-32" value="&lt;font style=&quot;font-size: 25px;&quot;&gt;&lt;b&gt;Unified Liquidity Management&lt;/b&gt;&lt;/font&gt;" style="text;html=1;strokeColor=none;fillColor=none;align=center;verticalAlign=middle;whiteSpace=wrap;rounded=0;" vertex="1" parent="1">
          <mxGeometry x="930" y="550" width="429" height="40" as="geometry" />
        </mxCell>
        <mxCell id="nNT3iWc_eE8hrZQ5aYZv-33" value="" style="endArrow=classic;html=1;rounded=0;entryX=0;entryY=0.5;entryDx=0;entryDy=0;exitX=1;exitY=0.5;exitDx=0;exitDy=0;strokeColor=#FF66B3;" edge="1" parent="1" source="nNT3iWc_eE8hrZQ5aYZv-1" target="nNT3iWc_eE8hrZQ5aYZv-32">
          <mxGeometry width="50" height="50" relative="1" as="geometry">
            <mxPoint x="974" y="840" as="sourcePoint" />
            <mxPoint x="660" y="735" as="targetPoint" />
          </mxGeometry>
        </mxCell>
        <mxCell id="nNT3iWc_eE8hrZQ5aYZv-34" value="&lt;font style=&quot;font-size: 25px;&quot;&gt;&lt;b&gt;Layer0 for Cross-Chain Messaging&lt;/b&gt;&lt;/font&gt;" style="text;html=1;strokeColor=none;fillColor=none;align=center;verticalAlign=middle;whiteSpace=wrap;rounded=0;" vertex="1" parent="1">
          <mxGeometry x="930" y="600" width="429" height="40" as="geometry" />
        </mxCell>
        <mxCell id="nNT3iWc_eE8hrZQ5aYZv-35" value="" style="endArrow=classic;html=1;rounded=0;entryX=0;entryY=0.5;entryDx=0;entryDy=0;exitX=1;exitY=0.5;exitDx=0;exitDy=0;strokeColor=#7F00FF;" edge="1" parent="1" source="nNT3iWc_eE8hrZQ5aYZv-1" target="nNT3iWc_eE8hrZQ5aYZv-34">
          <mxGeometry width="50" height="50" relative="1" as="geometry">
            <mxPoint x="954" y="800" as="sourcePoint" />
            <mxPoint x="650" y="755" as="targetPoint" />
          </mxGeometry>
        </mxCell>
        <mxCell id="nNT3iWc_eE8hrZQ5aYZv-36" value="&lt;font style=&quot;font-size: 25px;&quot;&gt;&lt;b&gt;Virtualized Liquidity&lt;/b&gt;&lt;/font&gt;" style="text;html=1;strokeColor=none;fillColor=none;align=center;verticalAlign=middle;whiteSpace=wrap;rounded=0;" vertex="1" parent="1">
          <mxGeometry x="930" y="650" width="429" height="40" as="geometry" />
        </mxCell>
        <mxCell id="nNT3iWc_eE8hrZQ5aYZv-37" value="" style="endArrow=classic;html=1;rounded=0;entryX=0;entryY=0.5;entryDx=0;entryDy=0;exitX=1;exitY=0.5;exitDx=0;exitDy=0;strokeColor=#6600CC;" edge="1" parent="1" source="nNT3iWc_eE8hrZQ5aYZv-1" target="nNT3iWc_eE8hrZQ5aYZv-36">
          <mxGeometry width="50" height="50" relative="1" as="geometry">
            <mxPoint x="964" y="812.5" as="sourcePoint" />
            <mxPoint x="660" y="827.5" as="targetPoint" />
          </mxGeometry>
        </mxCell>
        <mxCell id="nNT3iWc_eE8hrZQ5aYZv-38" value="&lt;font style=&quot;font-size: 25px;&quot;&gt;&lt;b&gt;Arbitrary Cross-Chain Execution&lt;/b&gt;&lt;/font&gt;" style="text;html=1;strokeColor=none;fillColor=none;align=center;verticalAlign=middle;whiteSpace=wrap;rounded=0;" vertex="1" parent="1">
          <mxGeometry x="930" y="700" width="429" height="40" as="geometry" />
        </mxCell>
        <mxCell id="nNT3iWc_eE8hrZQ5aYZv-39" value="" style="endArrow=classic;html=1;rounded=0;entryX=0;entryY=0.5;entryDx=0;entryDy=0;exitX=1;exitY=0.5;exitDx=0;exitDy=0;strokeColor=#FF66B3;" edge="1" parent="1" source="nNT3iWc_eE8hrZQ5aYZv-1" target="nNT3iWc_eE8hrZQ5aYZv-38">
          <mxGeometry width="50" height="50" relative="1" as="geometry">
            <mxPoint x="864" y="760" as="sourcePoint" />
            <mxPoint x="560" y="835" as="targetPoint" />
          </mxGeometry>
        </mxCell>
        <mxCell id="nNT3iWc_eE8hrZQ5aYZv-40" value="&lt;font style=&quot;font-size: 25px;&quot;&gt;&lt;b&gt;Bridge Agent Factories&lt;/b&gt;&lt;/font&gt;" style="text;html=1;strokeColor=none;fillColor=none;align=center;verticalAlign=middle;whiteSpace=wrap;rounded=0;" vertex="1" parent="1">
          <mxGeometry x="930" y="750" width="429" height="40" as="geometry" />
        </mxCell>
        <mxCell id="nNT3iWc_eE8hrZQ5aYZv-41" value="" style="endArrow=classic;html=1;rounded=0;entryX=0;entryY=0.5;entryDx=0;entryDy=0;exitX=1;exitY=0.5;exitDx=0;exitDy=0;strokeColor=#FFC012;" edge="1" parent="1" source="nNT3iWc_eE8hrZQ5aYZv-1" target="nNT3iWc_eE8hrZQ5aYZv-40">
          <mxGeometry width="50" height="50" relative="1" as="geometry">
            <mxPoint x="834" y="740" as="sourcePoint" />
            <mxPoint x="530" y="885" as="targetPoint" />
          </mxGeometry>
        </mxCell>
      </root>
    </mxGraphModel>
  </diagram>
</mxfile>
